<svg xmlns="http://www.w3.org/2000/svg" viewBox="0 0 390 844" width="390" height="844">
  <!-- Phone screen preview for PWA install prompt -->
  <rect width="390" height="844" fill="#1A2332"/>

  <!-- Status bar -->
  <rect width="390" height="44" fill="#1F2B3D"/>
  <text x="24" y="28" font-family="system-ui" font-size="13" font-weight="600" fill="#F0F4F8">9:41</text>

  <!-- Nav bar -->
  <rect y="44" width="390" height="56" fill="#1F2B3D"/>
  <rect x="16" y="58" width="28" height="28" rx="8" fill="#1D9E75"/>
  <path d="M22 72C19.5 70 17 68 17 65.25A2.75 2.75 0 0 1 19.75 62.5C20.8 62.5 21.75 63 22 64.1C22.25 63 23.2 62.5 24.25 62.5A2.75 2.75 0 0 1 27 65.25C27 68 24.5 70 22 72Z" fill="white"/>
  <rect x="52" y="64" width="80" height="10" rx="5" fill="#F0F4F8"/>
  <rect x="52" y="78" width="30" height="6" rx="3" fill="#1D9E75"/>

  <!-- Hero section -->
  <rect y="100" width="390" height="160" fill="#1A2332"/>
  <text x="195" y="148" font-family="system-ui" font-size="22" font-weight="800" fill="#F0F4F8" text-anchor="middle">Cuidado emocional</text>
  <text x="195" y="174" font-family="system-ui" font-size="22" font-weight="800" fill="#1D9E75" text-anchor="middle">que cabe na sua vida</text>
  <text x="195" y="204" font-family="system-ui" font-size="13" fill="#A8B8CC" text-anchor="middle">Gratuito, sem burocracia, pelo WhatsApp.</text>
  <rect x="120" y="220" width="150" height="36" rx="18" fill="#1D9E75"/>
  <text x="195" y="242" font-family="system-ui" font-size="13" font-weight="700" fill="white" text-anchor="middle">Quero participar</text>

  <!-- Module cards -->
  <rect y="280" width="390" height="360" fill="#1F2B3D"/>
  <!-- Card 1 -->
  <rect x="16" y="296" width="109" height="130" rx="12" fill="#263347"/>
  <rect x="16" y="296" width="109" height="4" rx="2" fill="#1D9E75"/>
  <rect x="28" y="316" width="28" height="28" rx="8" fill="#1D9E75" fill-opacity="0.2"/>
  <text x="42" y="334" font-family="system-ui" font-size="14" fill="#1D9E75" text-anchor="middle">💬</text>
  <text x="70" y="364" font-family="system-ui" font-size="11" font-weight="700" fill="#F0F4F8" text-anchor="middle">Acesso &amp;</text>
  <text x="70" y="378" font-family="system-ui" font-size="11" font-weight="700" fill="#F0F4F8" text-anchor="middle">Conexão</text>
  <text x="70" y="398" font-family="system-ui" font-size="9" fill="#A8B8CC" text-anchor="middle">Gratuito · CRP</text>
  <!-- Card 2 -->
  <rect x="141" y="296" width="109" height="130" rx="12" fill="#263347"/>
  <rect x="141" y="296" width="109" height="4" rx="2" fill="#7F77DD"/>
  <text x="195" y="334" font-family="system-ui" font-size="14" fill="#7F77DD" text-anchor="middle">🧠</text>
  <text x="195" y="364" font-family="system-ui" font-size="11" font-weight="700" fill="#F0F4F8" text-anchor="middle">Mente &amp;</text>
  <text x="195" y="378" font-family="system-ui" font-size="11" font-weight="700" fill="#F0F4F8" text-anchor="middle">Corpo</text>
  <text x="195" y="398" font-family="system-ui" font-size="9" fill="#A8B8CC" text-anchor="middle">Check-in diário</text>
  <!-- Card 3 -->
  <rect x="266" y="296" width="109" height="130" rx="12" fill="#263347"/>
  <rect x="266" y="296" width="109" height="4" rx="2" fill="#D85A30"/>
  <text x="320" y="334" font-family="system-ui" font-size="14" fill="#D85A30" text-anchor="middle">⭐</text>
  <text x="320" y="364" font-family="system-ui" font-size="11" font-weight="700" fill="#F0F4F8" text-anchor="middle">Jornada</text>
  <text x="320" y="378" font-family="system-ui" font-size="11" font-weight="700" fill="#F0F4F8" text-anchor="middle">&amp; IA</text>
  <text x="320" y="398" font-family="system-ui" font-size="9" fill="#A8B8CC" text-anchor="middle">Narrativa adaptativa</text>

  <!-- Bottom nav -->
  <rect y="784" width="390" height="60" fill="rgba(26,35,50,0.95)"/>
  <rect y="784" width="390" height="1" fill="#334866"/>
  <!-- Nav items -->
  <text x="49"  y="814" font-family="system-ui" font-size="20" text-anchor="middle">🏠</text>
  <text x="49"  y="832" font-family="system-ui" font-size="9" fill="#1D9E75" text-anchor="middle" font-weight="600">Início</text>
  <rect x="37" y="784" width="24" height="3" rx="2" fill="#1D9E75"/>
  <text x="147" y="814" font-family="system-ui" font-size="20" text-anchor="middle">⭐</text>
  <text x="147" y="832" font-family="system-ui" font-size="9" fill="#6B7E94" text-anchor="middle" font-weight="600">Jornada</text>
  <text x="243" y="814" font-family="system-ui" font-size="20" text-anchor="middle">💬</text>
  <text x="243" y="832" font-family="system-ui" font-size="9" fill="#6B7E94" text-anchor="middle" font-weight="600">Acesso</text>
  <text x="341" y="814" font-family="system-ui" font-size="20" text-anchor="middle">❤️</text>
  <text x="341" y="832" font-family="system-ui" font-size="9" fill="#6B7E94" text-anchor="middle" font-weight="600">Mente</text>
</svg>
